<svg width="915" height="154" viewBox="0 0 915 154" fill="none" xmlns="http://www.w3.org/2000/svg">
<g opacity="0.5">
<path opacity="0.5" d="M172.545 64.0539C172.158 63.2042 171.115 62.9074 170.306 63.3775L163.335 67.4312C162.83 67.7244 162.52 68.2625 162.52 68.8446V84.9663C162.52 85.5483 162.83 86.0868 163.335 86.38L170.306 90.4333C171.115 90.9037 172.158 90.607 172.545 89.7573C174.331 85.8402 175.326 81.4885 175.326 76.9056C175.326 72.3224 174.331 67.9709 172.545 64.0539Z" fill="#F8F8F8"/>
<path opacity="0.5" d="M169.742 94.6639C170.27 93.9085 170.01 92.877 169.212 92.4127L162.035 88.2396C161.523 87.9421 160.891 87.9424 160.38 88.2396L146.261 96.4493C145.756 96.7428 145.446 97.2809 145.446 97.863V106.266C145.446 107.197 146.225 107.944 147.154 107.855C156.504 106.959 164.647 101.95 169.742 94.6639Z" fill="#F8F8F8"/>
</g>
<g opacity="0.88">
<path opacity="0.88" d="M142.819 47.5441C142.819 46.614 142.04 45.8665 141.111 45.9554C131.762 46.8511 123.618 51.8608 118.524 59.1466C117.995 59.9021 118.255 60.9336 119.053 61.3975L126.231 65.571C126.742 65.8681 127.374 65.8681 127.885 65.571L142.004 57.3609C142.509 57.0678 142.819 56.5297 142.819 55.9476V47.5441Z" fill="#F8F8F8"/>
<path opacity="0.88" d="M117.959 90.4338C117.15 90.9042 116.107 90.6074 115.72 89.7578C113.934 85.8407 112.939 81.4889 112.939 76.9061C112.939 72.3228 113.934 67.9714 115.72 64.0543C116.107 63.2047 117.15 62.9079 117.959 63.378L124.93 67.4317C125.435 67.7249 125.745 68.263 125.745 68.845V84.9667C125.745 85.5488 125.435 86.0873 124.93 86.3804L117.959 90.4338Z" fill="#F8F8F8"/>
<path opacity="0.88" d="M147.154 45.9554C146.225 45.8665 145.446 46.614 145.446 47.5441V55.9476C145.446 56.5297 145.756 57.0678 146.261 57.3609L160.38 65.571C160.891 65.8681 161.523 65.8681 162.035 65.571L169.212 61.3975C170.01 60.9336 170.27 59.9021 169.742 59.1466C164.647 51.8608 156.504 46.8511 147.154 45.9554Z" fill="#F8F8F8"/>
</g>
<path d="M142.478 59.702C143.5 59.1078 144.765 59.1078 145.787 59.702L158.265 66.9574C159.274 67.5441 159.894 68.6203 159.894 69.7844V84.0262C159.894 85.1904 159.274 86.267 158.265 86.8536L145.787 94.1086C144.765 94.7032 143.5 94.7032 142.478 94.1086L130.001 86.8536C128.992 86.267 128.372 85.1904 128.372 84.0262V69.7844C128.372 68.6203 128.992 67.5441 130.001 66.9574L142.478 59.702Z" fill="#F8F8F8"/>
<path fill-rule="evenodd" clip-rule="evenodd" d="M107.685 76.905C107.685 82.2506 108.846 87.3397 110.936 91.9236C111.92 94.0806 113.828 95.3981 115.88 95.7754C115.963 95.7905 116.033 95.8085 116.088 95.8269C116.115 95.8358 116.137 95.844 116.155 95.8512C121.795 104.113 131.035 109.757 141.642 110.527C141.651 110.534 141.661 110.542 141.673 110.552C141.68 110.558 141.688 110.565 141.696 110.572C141.74 110.611 141.791 110.662 141.845 110.726C143.199 112.307 145.295 113.294 147.656 113.068C158.595 112.02 168.107 106.159 174.051 97.6582C174.573 96.9123 174.926 96.0994 175.113 95.2622C175.21 94.8302 175.477 94.3626 175.802 94.0576C176.429 93.4693 176.95 92.7519 177.328 91.9236C179.418 87.3397 180.58 82.2506 180.58 76.905C180.58 71.5598 179.418 66.4707 177.328 61.8865C176.95 61.0582 176.429 60.3408 175.802 59.7528C175.477 59.4475 175.21 58.9803 175.113 58.5479C174.926 57.711 174.573 56.8981 174.051 56.1519C168.107 47.6513 158.595 41.7903 147.656 40.7423C146.714 40.6523 145.799 40.7551 144.95 41.0237C144.459 41.1789 143.806 41.1789 143.315 41.0237C142.466 40.7551 141.551 40.6523 140.609 40.7423C129.67 41.7903 120.157 47.6513 114.213 56.1519C113.692 56.8981 113.339 57.711 113.151 58.5479C113.054 58.9803 112.787 59.4475 112.462 59.7528C111.836 60.3408 111.314 61.0582 110.936 61.8865C108.846 66.4707 107.685 71.5598 107.685 76.905ZM171.896 57.649C166.377 49.7557 157.549 44.3205 147.405 43.3487C146.816 43.2926 146.257 43.3573 145.744 43.5195C144.736 43.8383 143.529 43.8383 142.521 43.5195C142.008 43.3573 141.448 43.2926 140.86 43.3487C130.716 44.3205 121.887 49.7557 116.368 57.649C116.043 58.1148 115.828 58.6132 115.715 59.1192C115.503 60.0634 114.97 60.9958 114.263 61.659C113.885 62.0145 113.564 62.4522 113.328 62.9699C111.39 67.2205 110.312 71.941 110.312 76.905C110.312 81.8694 111.39 86.5896 113.328 90.8402C113.932 92.1653 115.09 92.9676 116.356 93.2001C117.101 93.337 117.838 93.6584 118.262 94.2838C123.483 101.99 132.082 107.243 141.947 107.924C142.703 107.976 143.352 108.452 143.844 109.027C144.679 110.002 145.954 110.6 147.405 110.461C157.549 109.49 166.377 104.054 171.896 96.1611C172.222 95.6952 172.436 95.1972 172.55 94.6909C172.762 93.7467 173.295 92.8147 174.002 92.1511C174.38 91.7959 174.701 91.3579 174.937 90.8402C176.875 86.5896 177.953 81.8694 177.953 76.905C177.953 71.941 176.875 67.2205 174.937 62.9699C174.701 62.4522 174.38 62.0145 174.002 61.659C173.295 60.9958 172.762 60.0634 172.55 59.1192C172.436 58.6132 172.222 58.1148 171.896 57.649Z" fill="#F8F8F8"/>
<path d="M803.771 52.9376V66.4397C803.771 67.5278 804.651 68.4096 805.741 68.4096H829.747V101.548C829.747 102.636 830.627 103.518 831.717 103.518H845.217C846.307 103.518 847.187 102.636 847.187 101.548V68.4096H871.193C872.28 68.4096 873.163 67.5278 873.163 66.4397V52.9376C873.163 51.8496 872.28 50.9678 871.193 50.9678H805.741C804.651 50.9678 803.771 51.8496 803.771 52.9376Z" fill="#F8F8F8"/>
<path d="M741.064 101.547V53.0119C741.064 51.9238 741.947 51.042 743.033 51.042H797.11C798.196 51.042 799.079 51.9238 799.079 53.0119V63.5943C799.079 64.6823 798.196 65.5642 797.11 65.5642H758.507V70.2055H794.49C795.576 70.2055 796.459 71.0873 796.459 72.1753V82.2338C796.459 83.3218 795.576 84.2037 794.49 84.2037H758.507V88.9947H797.11C798.196 88.9947 799.079 89.8765 799.079 90.9646V101.547C799.079 102.635 798.196 103.517 797.11 103.517H743.033C741.947 103.517 741.064 102.635 741.064 101.547Z" fill="#F8F8F8"/>
<path d="M733.558 103.518C734.645 103.518 735.528 102.636 735.528 101.548V52.9376C735.528 51.8496 734.645 50.9678 733.558 50.9678H720.055C718.968 50.9678 718.085 51.8496 718.085 52.9376V82.1084L693.376 51.6956L693.367 51.6871C692.996 51.2317 692.434 50.9678 691.847 50.9678H670.5C669.413 50.9678 668.53 51.8496 668.53 52.9376V101.548C668.53 102.636 669.413 103.518 670.5 103.518H684.003C685.087 103.518 685.966 102.643 685.973 101.56V71.8529L689.463 76.1453L689.47 76.1544L711.132 102.791C711.506 103.251 712.067 103.518 712.658 103.518H733.558Z" fill="#F8F8F8"/>
<path fill-rule="evenodd" clip-rule="evenodd" d="M641.254 51.1177C642.029 51.1177 642.734 51.5734 643.05 52.2815L664.79 100.742C665.375 102.045 664.419 103.518 662.991 103.518H647.104C646.323 103.518 645.62 103.059 645.302 102.348L642.449 95.9294L642.442 95.914L641.93 94.7597H615.954L612.51 102.361L612.504 102.376C612.182 103.072 611.486 103.518 610.718 103.518H594.896C593.468 103.518 592.513 102.043 593.1 100.74L614.907 52.2792C615.225 51.5724 615.928 51.1177 616.703 51.1177H641.254ZM625.327 79.5635H622.169L628.906 65.8647L630.666 69.4433L630.672 69.4587L634.244 76.7243L634.254 76.7397L635.643 79.5635H632.481H632.478H625.331H625.327Z" fill="#F8F8F8"/>
<path d="M549.934 50.9678H536.431C535.344 50.9678 534.461 51.8496 534.461 52.9376V101.548C534.461 102.636 535.344 103.518 536.431 103.518H588.035C589.125 103.518 590.005 102.636 590.005 101.548V88.1207C590.005 87.0327 589.125 86.1509 588.035 86.1509H551.904V52.9376C551.904 51.8496 551.021 50.9678 549.934 50.9678Z" fill="#F8F8F8"/>
<path fill-rule="evenodd" clip-rule="evenodd" d="M471.737 101.76V52.9376C471.737 51.8496 472.62 50.9678 473.707 50.9678H508.715C513.751 50.9678 531.49 51.6444 531.49 71.2607C531.49 90.802 514.802 93.0569 509.316 93.0569H489.249V101.76C489.249 102.847 488.366 103.73 487.279 103.73H473.707C472.62 103.73 471.737 102.847 471.737 101.76ZM489.249 77.4989V66.5258H507.887C510.369 66.5258 515.104 66.6761 515.104 71.7869C515.104 76.8977 510.895 77.4989 508.189 77.4989H489.249Z" fill="#F8F8F8"/>
<path d="M373.5 53.0119V101.547C373.5 102.635 374.383 103.517 375.47 103.517H429.546C430.633 103.517 431.516 102.635 431.516 101.547V90.9646C431.516 89.8765 430.633 88.9947 429.546 88.9947H390.943V84.2037H426.926C428.013 84.2037 428.896 83.3218 428.896 82.2338V72.1753C428.896 71.0873 428.013 70.2055 426.926 70.2055H390.943V65.5642H429.546C430.633 65.5642 431.516 64.6823 431.516 63.5943V53.0119C431.516 51.9238 430.633 51.042 429.546 51.042H375.47C374.383 51.042 373.5 51.9238 373.5 53.0119Z" fill="#F8F8F8"/>
<path d="M315.22 50.9678H328.722C329.812 50.9678 330.691 51.8496 330.691 52.9376V86.1509H366.825C367.912 86.1509 368.795 87.0327 368.795 88.1207V101.548C368.795 102.636 367.912 103.518 366.825 103.518H315.22C314.132 103.518 313.25 102.636 313.25 101.548V52.9376C313.25 51.8496 314.132 50.9678 315.22 50.9678Z" fill="#F8F8F8"/>
<path d="M309.136 52.9376C309.136 51.8496 308.254 50.9678 307.166 50.9678H251.594C250.506 50.9678 249.625 51.8496 249.625 52.9376V63.5953C249.625 64.6829 250.506 65.5651 251.594 65.5651H277.181H277.187H284.134L250.561 86.2474C249.979 86.6062 249.625 87.2408 249.625 87.9247V101.548C249.625 102.636 250.506 103.518 251.594 103.518H307.166C308.254 103.518 309.136 102.636 309.136 101.548V91.0401C309.136 89.952 308.254 89.0702 307.166 89.0702H275.076L308.204 68.5383C308.784 68.1791 309.136 67.5455 309.136 66.8639V52.9376Z" fill="#F8F8F8"/>
<path d="M244.663 50.9678C245.751 50.9678 246.633 51.8496 246.633 52.9376V66.8639C246.633 67.5455 246.28 68.1791 245.701 68.5383L212.572 89.0702H244.663C245.751 89.0702 246.633 89.952 246.633 91.0401V101.548C246.633 102.636 245.751 103.518 244.663 103.518H189.091C188.003 103.518 187.121 102.636 187.121 101.548V87.9247C187.121 87.2408 187.476 86.6062 188.058 86.2474L221.63 65.5651H214.683H214.677H189.091C188.003 65.5651 187.121 64.6829 187.121 63.5953V52.9376C187.121 51.8496 188.003 50.9678 189.091 50.9678H244.663Z" fill="#F8F8F8"/>
<path fill-rule="evenodd" clip-rule="evenodd" d="M41.3512 52.9376V101.76C41.3512 102.847 42.233 103.73 43.3211 103.73H56.8934C57.9815 103.73 58.8633 102.847 58.8633 101.76V93.0569H78.9306C84.4174 93.0569 101.103 90.802 101.103 71.2607C101.103 51.6444 83.3651 50.9678 78.3295 50.9678H43.3211C42.233 50.9678 41.3512 51.8496 41.3512 52.9376ZM58.8633 66.5258V77.4989H77.8032C80.5092 77.4989 84.7181 76.8977 84.7181 71.7869C84.7181 66.6761 79.9829 66.5258 77.5028 66.5258H58.8633Z" fill="#F8F8F8"/>
</svg>
